<svg width="12" height="14" viewBox="0 0 12 14" fill="none" xmlns="http://www.w3.org/2000/svg">
<g clip-path="url(#clip0_62_314)">
<path d="M7.90699 5.85709C7.59897 5.85709 7.29189 5.89302 6.99121 5.96424C7.68577 6.4007 8.26135 7.02298 8.66095 7.76946C9.06055 8.51594 9.27031 9.36073 9.26948 10.2202V13.4226C9.27373 13.6323 9.2214 13.8389 9.11871 14.0178H11.4584C11.6065 14.0178 11.7485 13.9551 11.8533 13.8435C11.958 13.7318 12.0168 13.5804 12.0168 13.4226V10.2202C12.0168 9.64571 11.9104 9.07689 11.7036 8.54637C11.4969 8.01585 11.1939 7.53407 10.8121 7.12868C10.4302 6.7233 9.97701 6.40229 9.47848 6.18407C8.97995 5.96586 8.4459 5.85474 7.90699 5.85709Z" fill="#07562F"/>
<path d="M7.03573 4.76186C7.24448 4.98258 7.48839 5.16196 7.75607 5.29162C8.0944 5.4725 8.4665 5.57014 8.84495 5.57734C8.99829 5.57062 9.15116 5.55472 9.30283 5.52972C9.70499 5.45494 10.0849 5.27991 10.4115 5.01892C10.7382 4.75792 11.0024 4.41834 11.1826 4.02785C11.3627 3.63736 11.4538 3.20702 11.4483 2.77189C11.4428 2.33676 11.341 1.90917 11.1511 1.52397C10.9611 1.13877 10.6885 0.806857 10.3554 0.555288C10.0223 0.303718 9.63816 0.139611 9.23427 0.0763434C8.83037 0.0130758 8.41817 0.0524378 8.03126 0.191221C7.64434 0.330005 7.29367 0.564281 7.00781 0.874956C7.39159 1.44039 7.59819 2.1205 7.59819 2.81841C7.59819 3.51632 7.39159 4.19643 7.00781 4.76186H7.03573Z" fill="#07562F"/>
<path d="M8.72773 13.4227V10.2203C8.72992 9.45314 8.54208 8.69899 8.18318 8.03407C7.82428 7.36914 7.30706 6.817 6.6838 6.43347C6.06054 6.04995 5.35334 5.84862 4.63368 5.84986C3.91403 5.85109 3.20744 6.05484 2.58534 6.44051L2.51275 6.48218L3.22191 6.9167C3.40744 7.03395 3.56948 7.18901 3.69879 7.37302C3.8281 7.55702 3.92214 7.76638 3.97555 7.98913C4.02896 8.21188 4.04069 8.44366 4.01006 8.67124C3.97944 8.89882 3.90706 9.11775 3.79707 9.31551C3.68707 9.51327 3.54161 9.68601 3.36899 9.82385C3.19637 9.96169 2.99997 10.0619 2.79101 10.1189C2.58204 10.1758 2.36461 10.1883 2.15111 10.1557C1.93761 10.123 1.73224 10.0459 1.54672 9.92861L0.597437 9.33337C0.555876 9.62679 0.542777 9.92399 0.558349 10.2203V13.4227C0.558349 13.5805 0.61718 13.7319 0.721901 13.8435C0.826621 13.9552 0.968652 14.0179 1.11675 14.0179H8.1805C8.32859 14.0179 8.47063 13.9552 8.57535 13.8435C8.68007 13.7319 8.7389 13.5805 8.7389 13.4227H8.72773Z" fill="#07562F"/>
<path d="M0.55842 8.60124L1.87066 9.42862C2.0787 9.56153 2.32257 9.61617 2.5632 9.5838C2.80384 9.55143 3.02732 9.4339 3.19786 9.25006C3.36839 9.06621 3.47612 8.82668 3.50378 8.56982C3.53144 8.31296 3.47744 8.05364 3.35042 7.83338C3.25736 7.6649 3.12452 7.52534 2.96512 7.42862L1.63055 6.60124C1.46231 6.49206 1.26911 6.4344 1.07215 6.43457C0.884066 6.44545 0.701622 6.50686 0.541787 6.6131C0.381953 6.71933 0.24992 6.86693 0.157973 7.04216C0.0660252 7.2174 0.0171501 7.41458 0.015894 7.61536C0.0146379 7.81614 0.0610416 8.014 0.150788 8.19052C0.251676 8.36216 0.391978 8.50353 0.55842 8.60124Z" fill="#07562F"/>
<path d="M5.44998 5.3572C5.93276 5.15581 6.34725 4.80372 6.63918 4.34702C6.93111 3.89033 7.08688 3.35032 7.08609 2.79768C7.08668 2.59803 7.06986 2.39876 7.03583 2.20244C6.91557 1.57802 6.59681 1.01699 6.1334 0.614109C5.66998 0.211233 5.09032 -0.00878906 4.49232 -0.00878906C3.89433 -0.00878906 3.31467 0.211233 2.85125 0.614109C2.38783 1.01699 2.06907 1.57802 1.94881 2.20244C1.91374 2.39854 1.89876 2.59813 1.90414 2.79768C1.90201 3.3672 2.06653 3.92327 2.3748 4.38844C2.68307 4.8536 3.11974 5.20473 3.62401 5.39292C3.89364 5.50182 4.1789 5.56022 4.4672 5.56554C4.8043 5.56402 5.13798 5.49328 5.44998 5.3572Z" fill="#07562F"/>
</g>
<defs>
<clipPath id="clip0_62_314">
<rect width="12" height="14" fill="white"/>
</clipPath>
</defs>
</svg>
