<svg width="24" height="24" viewBox="0 0 24 24" fill="none" xmlns="http://www.w3.org/2000/svg">
<path d="M17.615 21H18.385V18.5H20.885V17.73H18.385V15.23H17.615V17.73H15.115V18.5H17.615V21ZM18 22.115C16.886 22.115 15.9407 21.727 15.164 20.951C14.3873 20.175 13.9993 19.2297 14 18.115C14 17.0017 14.388 16.0567 15.164 15.28C15.94 14.5033 16.8853 14.115 18 14.115C19.114 14.115 20.0593 14.5033 20.836 15.28C21.6127 16.0567 22.0007 17.0017 22 18.115C22 19.2297 21.612 20.175 20.836 20.951C20.0587 21.727 19.1133 22.115 18 22.115ZM7.5 8.731H16.5V7.731H7.5V8.731ZM11.521 20H5.615C5.171 20 4.791 19.8417 4.475 19.525C4.15833 19.209 4 18.829 4 18.385V5.615C4 5.171 4.15833 4.791 4.475 4.475C4.791 4.15833 5.171 4 5.615 4H18.385C18.829 4 19.209 4.15833 19.525 4.475C19.8417 4.791 20 5.171 20 5.615V11.565C19.6707 11.4603 19.3403 11.3783 19.009 11.319C18.6777 11.2603 18.3413 11.231 18 11.231C17.6627 11.231 17.3347 11.2577 17.016 11.311C16.6973 11.3643 16.384 11.4397 16.076 11.537V11.5H7.5V12.5H14.087C13.5817 12.8473 13.1377 13.255 12.755 13.723C12.3723 14.191 12.0573 14.7063 11.81 15.269H7.5V16.269H11.46C11.388 16.551 11.3317 16.8353 11.291 17.122C11.251 17.4087 11.231 17.7013 11.231 18C11.231 18.3067 11.249 18.643 11.285 19.009C11.3203 19.375 11.399 19.7053 11.521 20Z" fill="#E9E2BE"/>
</svg>
