<svg width="12" height="14" viewBox="0 0 12 14" fill="none" xmlns="http://www.w3.org/2000/svg">
<g clip-path="url(#clip0_244_826)">
<path d="M7.90699 5.85709C7.59897 5.85709 7.29189 5.89302 6.99121 5.96424C7.68577 6.4007 8.26135 7.02298 8.66095 7.76946C9.06055 8.51594 9.27031 9.36073 9.26948 10.2202V13.4226C9.27373 13.6323 9.2214 13.8389 9.11871 14.0178H11.4584C11.6065 14.0178 11.7485 13.9551 11.8533 13.8435C11.958 13.7318 12.0168 13.5804 12.0168 13.4226V10.2202C12.0168 9.64571 11.9104 9.07689 11.7036 8.54637C11.4969 8.01585 11.1939 7.53407 10.8121 7.12868C10.4302 6.7233 9.97701 6.40229 9.47848 6.18407C8.97995 5.96586 8.4459 5.85474 7.90699 5.85709Z" fill="#4E2D18"/>
<path d="M7.03573 4.76186C7.24448 4.98258 7.48839 5.16196 7.75607 5.29162C8.0944 5.4725 8.4665 5.57014 8.84495 5.57734C8.99829 5.57062 9.15116 5.55472 9.30283 5.52972C9.70499 5.45494 10.0849 5.27991 10.4115 5.01892C10.7382 4.75792 11.0024 4.41834 11.1826 4.02785C11.3627 3.63736 11.4538 3.20702 11.4483 2.77189C11.4428 2.33676 11.341 1.90917 11.1511 1.52397C10.9611 1.13877 10.6885 0.806857 10.3554 0.555288C10.0223 0.303718 9.63816 0.139611 9.23427 0.0763434C8.83037 0.0130758 8.41817 0.0524378 8.03126 0.191221C7.64434 0.330005 7.29367 0.564281 7.00781 0.874956C7.39159 1.44039 7.59819 2.1205 7.59819 2.81841C7.59819 3.51632 7.39159 4.19643 7.00781 4.76186H7.03573Z" fill="#4E2D18"/>
<path d="M8.72797 13.4227V10.2203C8.73017 9.45314 8.54232 8.69899 8.18342 8.03407C7.82453 7.36914 7.30731 6.817 6.68405 6.43347C6.06079 6.04995 5.35358 5.84862 4.63393 5.84986C3.91427 5.85109 3.20768 6.05484 2.58558 6.44051L2.51299 6.48218L3.22216 6.9167C3.40768 7.03395 3.56973 7.18901 3.69904 7.37302C3.82834 7.55702 3.92239 7.76638 3.9758 7.98913C4.0292 8.21188 4.04093 8.44366 4.0103 8.67124C3.97968 8.89882 3.9073 9.11775 3.79731 9.31551C3.68731 9.51327 3.54185 9.68601 3.36923 9.82385C3.19661 9.96169 3.00022 10.0619 2.79125 10.1189C2.58229 10.1758 2.36485 10.1883 2.15135 10.1557C1.93786 10.123 1.73249 10.0459 1.54696 9.92861L0.597681 9.33337C0.55612 9.62679 0.543022 9.92399 0.558593 10.2203V13.4227C0.558593 13.5805 0.617425 13.7319 0.722145 13.8435C0.826865 13.9552 0.968896 14.0179 1.11699 14.0179H8.18074C8.32884 14.0179 8.47087 13.9552 8.57559 13.8435C8.68031 13.7319 8.73914 13.5805 8.73914 13.4227H8.72797Z" fill="#4E2D18"/>
<path d="M0.558176 8.60124L1.87041 9.42862C2.07846 9.56153 2.32232 9.61617 2.56296 9.5838C2.80359 9.55143 3.02708 9.4339 3.19761 9.25006C3.36815 9.06621 3.47588 8.82668 3.50354 8.56982C3.5312 8.31296 3.47719 8.05364 3.35017 7.83338C3.25712 7.6649 3.12427 7.52534 2.96488 7.42862L1.6303 6.60124C1.46206 6.49206 1.26886 6.4344 1.0719 6.43457C0.883822 6.44545 0.701378 6.50686 0.541543 6.6131C0.381708 6.71933 0.249676 6.86693 0.157729 7.04216C0.0657811 7.2174 0.0169059 7.41458 0.0156498 7.61536C0.0143937 7.81614 0.0607975 8.014 0.150544 8.19052C0.251432 8.36216 0.391734 8.50353 0.558176 8.60124Z" fill="#4E2D18"/>
<path d="M5.44973 5.3572C5.93252 5.15581 6.34701 4.80372 6.63894 4.34702C6.93087 3.89033 7.08663 3.35032 7.08584 2.79768C7.08644 2.59803 7.06961 2.39876 7.03559 2.20244C6.91533 1.57802 6.59657 1.01699 6.13315 0.614109C5.66974 0.211233 5.09007 -0.00878906 4.49208 -0.00878906C3.89409 -0.00878906 3.31442 0.211233 2.85101 0.614109C2.38759 1.01699 2.06883 1.57802 1.94857 2.20244C1.9135 2.39854 1.89852 2.59813 1.9039 2.79768C1.90176 3.3672 2.06629 3.92327 2.37455 4.38844C2.68282 4.8536 3.1195 5.20473 3.62377 5.39292C3.8934 5.50182 4.17866 5.56022 4.46695 5.56554C4.80406 5.56402 5.13773 5.49328 5.44973 5.3572Z" fill="#4E2D18"/>
</g>
<defs>
<clipPath id="clip0_244_826">
<rect width="12" height="14" fill="white"/>
</clipPath>
</defs>
</svg>
