<svg width="24" height="24" viewBox="0 0 24 24" fill="none" xmlns="http://www.w3.org/2000/svg">
<path d="M18 8C18 8.53043 17.7893 9.03914 17.4142 9.41421C17.0391 9.78929 16.5304 10 16 10C15.4696 10 14.9609 9.78929 14.5858 9.41421C14.2107 9.03914 14 8.53043 14 8C14 7.46957 14.2107 6.96086 14.5858 6.58579C14.9609 6.21071 15.4696 6 16 6C16.5304 6 17.0391 6.21071 17.4142 6.58579C17.7893 6.96086 18 7.46957 18 8Z" fill="#0B733F"/>
<path fill-rule="evenodd" clip-rule="evenodd" d="M11.943 1.25H12.057C14.366 1.25 16.175 1.25 17.587 1.44C19.031 1.634 20.171 2.04 21.066 2.934C21.961 3.829 22.366 4.969 22.56 6.414C22.75 7.825 22.75 9.634 22.75 11.943V12.031C22.75 13.94 22.75 15.502 22.646 16.774C22.542 18.054 22.329 19.121 21.851 20.009C21.641 20.4 21.381 20.751 21.066 21.066C20.171 21.961 19.031 22.366 17.586 22.56C16.175 22.75 14.366 22.75 12.057 22.75H11.943C9.634 22.75 7.825 22.75 6.413 22.56C4.969 22.366 3.829 21.96 2.934 21.066C2.141 20.273 1.731 19.286 1.514 18.06C1.299 16.857 1.26 15.36 1.252 13.502C1.25 13.029 1.25 12.529 1.25 12.001V11.943C1.25 9.634 1.25 7.825 1.44 6.413C1.634 4.969 2.04 3.829 2.934 2.934C3.829 2.039 4.969 1.634 6.414 1.44C7.825 1.25 9.634 1.25 11.943 1.25ZM6.613 2.926C5.335 3.098 4.564 3.426 3.995 3.995C3.425 4.565 3.098 5.335 2.926 6.614C2.752 7.914 2.75 9.622 2.75 12V12.844L3.751 11.968C4.19007 11.5837 4.75882 11.3806 5.34203 11.3999C5.92524 11.4192 6.47931 11.6594 6.892 12.072L11.182 16.362C11.5149 16.6948 11.9546 16.8996 12.4235 16.9402C12.8925 16.9808 13.3608 16.8547 13.746 16.584L14.044 16.374C14.5997 15.9835 15.2714 15.7932 15.9493 15.834C16.6273 15.8749 17.2713 16.1446 17.776 16.599L20.606 19.146C20.892 18.548 21.061 17.762 21.151 16.653C21.249 15.448 21.25 13.946 21.25 12C21.25 9.622 21.248 7.914 21.074 6.614C20.902 5.335 20.574 4.564 20.005 3.994C19.435 3.425 18.665 3.098 17.386 2.926C16.086 2.752 14.378 2.75 12 2.75C9.622 2.75 7.913 2.752 6.613 2.926Z" fill="#0B733F"/>
</svg>
