<svg width="18" height="18" viewBox="0 0 18 18" fill="none" xmlns="http://www.w3.org/2000/svg">
<path d="M15.252 2.4158L2.90476 6.53255C2.85421 6.54936 2.80997 6.58116 2.77791 6.62372C2.74586 6.66627 2.72752 6.71758 2.72532 6.77081C2.72312 6.82404 2.73718 6.87668 2.76561 6.92174C2.79404 6.96679 2.83552 7.00213 2.88451 7.02305L7.42201 8.9678C7.44579 8.97809 7.47183 8.98205 7.49759 8.97929C7.52335 8.97653 7.54796 8.96714 7.56901 8.95205L12.0173 5.77355C12.1553 5.67605 12.3248 5.84555 12.2273 5.98355L9.04876 10.4318C9.03392 10.4528 9.02474 10.4773 9.02212 10.503C9.01949 10.5286 9.0235 10.5544 9.03376 10.578L10.9778 15.1155C10.9986 15.1646 11.0339 15.2061 11.0789 15.2346C11.1239 15.2631 11.1765 15.2772 11.2297 15.2751C11.283 15.273 11.3343 15.2547 11.3769 15.2227C11.4195 15.1908 11.4514 15.1466 11.4683 15.096L15.585 2.74805C15.6005 2.70177 15.6028 2.65208 15.5916 2.60457C15.5804 2.55707 15.5562 2.51362 15.5217 2.47911C15.4872 2.4446 15.4437 2.42039 15.3962 2.40921C15.3487 2.39802 15.2983 2.40031 15.252 2.4158Z" fill="#D6CFAF"/>
</svg>
