<svg width="18" height="18" viewBox="0 0 18 18" fill="none" xmlns="http://www.w3.org/2000/svg">
<path fill-rule="evenodd" clip-rule="evenodd" d="M9.00001 1.50002C4.85776 1.50002 1.50001 4.85777 1.50001 9.00002C1.49863 10.1051 1.74222 11.1968 2.21326 12.1965L1.51576 15.5993C1.49092 15.7208 1.4966 15.8465 1.53229 15.9653C1.56797 16.084 1.63255 16.1921 1.72023 16.2798C1.80792 16.3675 1.91598 16.4321 2.03474 16.4677C2.1535 16.5034 2.27926 16.5091 2.40076 16.4843L5.80351 15.7868C6.77401 16.2443 7.85851 16.4993 9.00001 16.4993C13.1423 16.4993 16.5 13.1423 16.5 8.99927C16.5 4.85777 13.1423 1.49927 9.00001 1.49927" fill="#D6CFAF"/>
</svg>
