<svg width="53" height="19" viewBox="0 0 53 19" fill="none" xmlns="http://www.w3.org/2000/svg">
<g clip-path="url(#clip0_321_1581)">
<path d="M13.0073 0V4.02797" stroke="#0B733F" stroke-width="0.776224" stroke-linecap="round"/>
<path d="M0.92334 12.0839H4.95131" stroke="#0B733F" stroke-width="0.776224" stroke-linecap="round"/>
<path d="M18.7029 6.38843L21.5507 3.54065" stroke="#0B733F" stroke-width="0.776224" stroke-linecap="round"/>
<path d="M7.31189 6.38843L4.46411 3.54065" stroke="#0B733F" stroke-width="0.776224" stroke-linecap="round"/>
<path fill-rule="evenodd" clip-rule="evenodd" d="M10.1878 17.868H15.827C18.5264 16.5547 19.9616 13.5515 19.2877 10.6261C18.6138 7.70073 16.0094 5.62805 13.0074 5.62805C10.0054 5.62805 7.401 7.70073 6.72712 10.6261C6.05324 13.5515 7.48839 16.5547 10.1878 17.868Z" fill="#0B733F" stroke="#0B733F" stroke-width="0.343399"/>
<path d="M23.065 17.868H2.93726" stroke="#4E2D18" stroke-width="0.776224" stroke-linecap="round"/>
<path d="M10.9934 12.0839H23.0773" stroke="#4E2D18" stroke-width="0.776224" stroke-linecap="round"/>
<path d="M2.93726 14.9036H15.0171" stroke="#4E2D18" stroke-width="0.776224" stroke-linecap="round"/>
</g>
<path opacity="0.7" d="M35.668 14.112C34.9773 14.112 34.3053 14.0047 33.652 13.79C33.008 13.5753 32.4807 13.286 32.07 12.922L32.714 11.816C33.0407 12.124 33.4653 12.376 33.988 12.572C34.5107 12.768 35.0707 12.866 35.668 12.866C36.396 12.866 36.9607 12.712 37.362 12.404C37.7727 12.0867 37.978 11.662 37.978 11.13C37.978 10.6167 37.782 10.206 37.39 9.898C37.0073 9.58067 36.396 9.422 35.556 9.422H34.772V8.442L37.684 4.858L37.88 5.418H32.518V4.2H38.986V5.152L36.088 8.722L35.36 8.288H35.822C37.0073 8.288 37.894 8.554 38.482 9.086C39.0793 9.618 39.378 10.2947 39.378 11.116C39.378 11.6667 39.2427 12.1707 38.972 12.628C38.7013 13.0853 38.2907 13.4493 37.74 13.72C37.1987 13.9813 36.508 14.112 35.668 14.112ZM42.3357 14V4.76L42.9377 5.418H40.1237V4.2H43.7217V14H42.3357ZM48.1194 8.666C47.69 8.666 47.298 8.568 46.9434 8.372C46.598 8.16667 46.3227 7.89133 46.1174 7.546C45.9214 7.20067 45.8234 6.81333 45.8234 6.384C45.8234 5.964 45.9214 5.58133 46.1174 5.236C46.3227 4.89067 46.598 4.62 46.9434 4.424C47.298 4.21867 47.69 4.116 48.1194 4.116C48.5487 4.116 48.936 4.21867 49.2814 4.424C49.636 4.62 49.916 4.89067 50.1214 5.236C50.3267 5.58133 50.4294 5.964 50.4294 6.384C50.4294 6.81333 50.3267 7.20067 50.1214 7.546C49.916 7.89133 49.636 8.16667 49.2814 8.372C48.936 8.568 48.5487 8.666 48.1194 8.666ZM48.1334 7.91C48.4134 7.91 48.6654 7.84467 48.8894 7.714C49.1227 7.574 49.3047 7.392 49.4354 7.168C49.566 6.93467 49.6314 6.678 49.6314 6.398C49.6314 6.09933 49.566 5.83333 49.4354 5.6C49.3047 5.36667 49.1227 5.18467 48.8894 5.054C48.6654 4.92333 48.4134 4.858 48.1334 4.858C47.844 4.858 47.5827 4.92333 47.3494 5.054C47.116 5.18467 46.934 5.36667 46.8034 5.6C46.6727 5.824 46.6074 6.09 46.6074 6.398C46.6074 6.68733 46.6727 6.94867 46.8034 7.182C46.934 7.406 47.116 7.58333 47.3494 7.714C47.5827 7.84467 47.844 7.91 48.1334 7.91Z" fill="black"/>
<defs>
<clipPath id="clip0_321_1581">
<rect width="24" height="18.4615" fill="white"/>
</clipPath>
</defs>
</svg>
