<svg width="24" height="25" viewBox="0 0 24 25" fill="none" xmlns="http://www.w3.org/2000/svg">
<path d="M14.945 1.35339C13.578 1.35339 12.475 1.35339 11.608 1.47039C10.708 1.59039 9.94996 1.85039 9.34796 2.45139C8.82396 2.97639 8.55796 3.62139 8.41896 4.37939C8.28396 5.11639 8.25796 6.01739 8.25196 7.09939C8.2509 7.29831 8.3289 7.48949 8.46881 7.6309C8.60871 7.7723 8.79905 7.85233 8.99796 7.85339C9.19688 7.85445 9.38806 7.77645 9.52947 7.63655C9.67087 7.49665 9.7509 7.30631 9.75196 7.10739C9.75796 6.01439 9.78596 5.23939 9.89396 4.65039C9.99896 4.08439 10.166 3.75539 10.409 3.51239C10.686 3.23539 11.075 3.05539 11.809 2.95639C12.564 2.85539 13.565 2.85339 15 2.85339H16C17.436 2.85339 18.437 2.85539 19.192 2.95639C19.926 3.05539 20.314 3.23639 20.592 3.51239C20.868 3.78939 21.048 4.17739 21.147 4.91239C21.249 5.66639 21.25 6.66839 21.25 8.10339V16.1034C21.25 17.5384 21.249 18.5394 21.147 19.2954C21.048 20.0294 20.868 20.4174 20.591 20.6944C20.314 20.9714 19.926 21.1514 19.192 21.2504C18.437 21.3514 17.436 21.3534 16 21.3534H15C13.565 21.3534 12.564 21.3514 11.808 21.2504C11.075 21.1514 10.686 20.9704 10.409 20.6944C10.166 20.4504 9.99896 20.1224 9.89396 19.5564C9.78596 18.9674 9.75796 18.1924 9.75196 17.0994C9.75144 17.0009 9.73152 16.9035 9.69334 16.8127C9.65517 16.7219 9.59948 16.6395 9.52947 16.5702C9.45945 16.501 9.37648 16.4462 9.28528 16.409C9.19409 16.3717 9.09646 16.3529 8.99796 16.3534C8.89947 16.3539 8.80205 16.3738 8.71126 16.412C8.62046 16.4502 8.53808 16.5059 8.46881 16.5759C8.39953 16.6459 8.34473 16.7289 8.30752 16.8201C8.27032 16.9113 8.25144 17.0089 8.25196 17.1074C8.25796 18.1894 8.28396 19.0904 8.41896 19.8274C8.55896 20.5854 8.82396 21.2304 9.34896 21.7554C9.94996 22.3574 10.709 22.6154 11.609 22.7374C12.475 22.8534 13.578 22.8534 14.945 22.8534H16.055C17.423 22.8534 18.525 22.8534 19.392 22.7374C20.292 22.6154 21.05 22.3574 21.652 21.7554C22.254 21.1534 22.512 20.3954 22.634 19.4954C22.75 18.6284 22.75 17.5254 22.75 16.1584V8.04839C22.75 6.68139 22.75 5.57839 22.634 4.71139C22.513 3.81139 22.254 3.05339 21.652 2.45139C21.05 1.84939 20.292 1.59139 19.392 1.47039C18.525 1.35339 17.422 1.35339 16.055 1.35339H14.945Z" fill="#E9E2BE"/>
<path d="M15.0001 11.3534C15.199 11.3534 15.3897 11.4324 15.5304 11.5731C15.6711 11.7137 15.7501 11.9045 15.7501 12.1034C15.7501 12.3023 15.6711 12.4931 15.5304 12.6337C15.3897 12.7744 15.199 12.8534 15.0001 12.8534H4.02707L5.98807 14.5334C6.13924 14.6628 6.23281 14.847 6.24819 15.0454C6.26357 15.2438 6.19949 15.4402 6.07007 15.5914C5.94064 15.7426 5.75647 15.8361 5.55805 15.8515C5.35964 15.8669 5.16324 15.8028 5.01207 15.6734L1.51207 12.6734C1.42973 12.603 1.36363 12.5156 1.31831 12.4172C1.27298 12.3188 1.24951 12.2117 1.24951 12.1034C1.24951 11.9951 1.27298 11.888 1.31831 11.7896C1.36363 11.6912 1.42973 11.6038 1.51207 11.5334L5.01207 8.53339C5.08692 8.46931 5.17367 8.42059 5.26735 8.39003C5.36103 8.35947 5.45981 8.34766 5.55805 8.35527C5.6563 8.36289 5.75208 8.38978 5.83993 8.43441C5.92778 8.47904 6.00598 8.54054 6.07007 8.61539C6.13415 8.69024 6.18287 8.77699 6.21343 8.87067C6.24399 8.96435 6.2558 9.06313 6.24819 9.16137C6.24057 9.25962 6.21368 9.3554 6.16905 9.44325C6.12442 9.5311 6.06292 9.6093 5.98807 9.67339L4.02807 11.3534H15.0001Z" fill="#E9E2BE"/>
</svg>
