<svg width="24" height="24" viewBox="0 0 24 24" fill="none" xmlns="http://www.w3.org/2000/svg">
<path d="M14.9383 20C14.9385 20.5046 14.7479 20.9906 14.4048 21.3605C14.0617 21.7305 13.5915 21.9572 13.0883 21.995L12.9383 22H10.9383C10.4337 22.0002 9.94776 21.8096 9.57778 21.4665C9.2078 21.1234 8.98117 20.6532 8.94333 20.15L8.93832 20H14.9383ZM11.9383 3C13.7533 2.99997 15.4973 3.70489 16.8026 4.96607C18.1078 6.22726 18.8721 7.94609 18.9343 9.76L18.9383 10V13.764L20.7603 17.408C20.8398 17.567 20.8796 17.7429 20.8763 17.9206C20.873 18.0984 20.8266 18.2727 20.7412 18.4286C20.6558 18.5845 20.5338 18.7174 20.3858 18.8158C20.2378 18.9143 20.0681 18.9754 19.8913 18.994L19.7763 19H4.10033C3.92249 19.0001 3.74729 18.957 3.58975 18.8745C3.4322 18.792 3.297 18.6725 3.19574 18.5264C3.09448 18.3802 3.03017 18.2116 3.00833 18.0351C2.98649 17.8586 3.00776 17.6795 3.07033 17.513L3.11633 17.408L4.93833 13.764V10C4.93833 8.14348 5.67582 6.36301 6.98858 5.05025C8.30133 3.7375 10.0818 3 11.9383 3Z" fill="#4E2D18"/>
</svg>
