<svg width="11" height="11" viewBox="0 0 11 11" fill="none" xmlns="http://www.w3.org/2000/svg">
<g opacity="0.7" clip-path="url(#clip0_173_794)">
<path fill-rule="evenodd" clip-rule="evenodd" d="M5.86667 0.746533V0H5.13333V0.746533C3.99962 0.833904 2.93448 1.32367 2.13018 2.12744C1.32588 2.9312 0.835396 3.99601 0.747267 5.12967H0V5.863H0.747267C0.835063 6.99741 1.32526 8.06313 2.12947 8.86802C2.93368 9.6729 3.999 10.164 5.13333 10.2527V11H5.86667V10.2527C7.001 10.164 8.06632 9.6729 8.87053 8.86802C9.67474 8.06313 10.1649 6.99741 10.2527 5.863H11V5.12967H10.2527C10.1646 3.99601 9.67412 2.9312 8.86982 2.12744C8.06552 1.32367 7.00038 0.833904 5.86667 0.746533ZM5.86667 2.2V5.12967H8.8V5.863H5.86667V8.8H5.13333V5.863H2.2V5.12967H5.13333V2.2H5.86667Z" fill="#0B733F"/>
</g>
<defs>
<clipPath id="clip0_173_794">
<rect width="11" height="11" fill="white"/>
</clipPath>
</defs>
</svg>
