<svg width="24" height="25" viewBox="0 0 24 25" fill="none" xmlns="http://www.w3.org/2000/svg">
<path d="M19 12.1034V5.85239C19.0001 5.77346 18.9845 5.69529 18.9543 5.62236C18.9241 5.54943 18.8798 5.48317 18.824 5.42739L15.676 2.27939C15.5636 2.16684 15.4111 2.10353 15.252 2.10339H3.6C3.44087 2.10339 3.28826 2.16661 3.17574 2.27913C3.06321 2.39165 3 2.54426 3 2.70339V21.5034C3 21.6625 3.06321 21.8151 3.17574 21.9277C3.28826 22.0402 3.44087 22.1034 3.6 22.1034H12M7 10.1034H15M7 6.10339H11M7 14.1034H10" stroke="#E9E2BE" stroke-width="1.5" stroke-linecap="round" stroke-linejoin="round"/>
<path d="M15 2.10339V5.50339C15 5.66252 15.0632 5.81514 15.1757 5.92766C15.2883 6.04018 15.4409 6.10339 15.6 6.10339H19M18.992 15.2284L21.548 15.8774C21.814 15.9454 22.001 16.1874 21.993 16.4614C21.821 22.2194 18.5 23.1034 18.5 23.1034C18.5 23.1034 15.179 22.2194 15.007 16.4614C15.0039 16.328 15.0463 16.1975 15.1271 16.0914C15.208 15.9853 15.3226 15.9098 15.452 15.8774L18.008 15.2284C18.331 15.1464 18.669 15.1464 18.992 15.2284Z" stroke="#E9E2BE" stroke-width="1.5" stroke-linecap="round" stroke-linejoin="round"/>
</svg>
