<svg width="20" height="19" viewBox="0 0 20 19" fill="none" xmlns="http://www.w3.org/2000/svg">
<path d="M7.246 11.1044C8.213 11.1044 8.996 11.8884 8.996 12.8544V16.3544C8.996 16.8186 8.81163 17.2637 8.48344 17.5919C8.15525 17.9201 7.71013 18.1044 7.246 18.1044H1.75C1.28587 18.1044 0.840752 17.9201 0.512563 17.5919C0.184375 17.2637 0 16.8186 0 16.3544V12.8544C0 11.8884 0.784 11.1044 1.75 11.1044H7.246ZM18.25 11.1044C19.216 11.1044 20 11.8884 20 12.8544V16.3544C20 16.8186 19.8156 17.2637 19.4874 17.5919C19.1592 17.9201 18.7141 18.1044 18.25 18.1044H12.754C12.2899 18.1044 11.8448 17.9201 11.5166 17.5919C11.1884 17.2637 11.004 16.8186 11.004 16.3544V12.8544C11.004 11.8884 11.787 11.1044 12.754 11.1044H18.25ZM18.25 0.0994263C19.216 0.0994263 20 0.883426 20 1.84943V7.35243C20.0001 7.58232 19.955 7.80999 19.8671 8.02243C19.7792 8.23486 19.6503 8.4279 19.4878 8.59051C19.3253 8.75312 19.1323 8.88211 18.9199 8.97012C18.7075 9.05813 18.4799 9.10343 18.25 9.10343H1.75C1.28587 9.10343 0.840752 8.91905 0.512563 8.59086C0.184375 8.26267 0 7.81755 0 7.35343V1.84943C1.64046e-05 1.41024 0.165171 0.987108 0.46268 0.664035C0.760189 0.340962 1.1683 0.141565 1.606 0.105426L1.75 0.0994263H18.25Z" fill="#004925"/>
</svg>
