<svg width="24" height="25" viewBox="0 0 24 25" fill="none" xmlns="http://www.w3.org/2000/svg">
<path d="M9.246 14.1044C10.213 14.1044 10.996 14.8884 10.996 15.8544V19.3544C10.996 19.8186 10.8116 20.2637 10.4834 20.5919C10.1552 20.9201 9.71013 21.1044 9.246 21.1044H3.75C3.28587 21.1044 2.84075 20.9201 2.51256 20.5919C2.18437 20.2637 2 19.8186 2 19.3544V15.8544C2 14.8884 2.784 14.1044 3.75 14.1044H9.246ZM20.25 14.1044C21.216 14.1044 22 14.8884 22 15.8544V19.3544C22 19.8186 21.8156 20.2637 21.4874 20.5919C21.1592 20.9201 20.7141 21.1044 20.25 21.1044H14.754C14.2899 21.1044 13.8448 20.9201 13.5166 20.5919C13.1884 20.2637 13.004 19.8186 13.004 19.3544V15.8544C13.004 14.8884 13.787 14.1044 14.754 14.1044H20.25ZM20.25 3.09943C21.216 3.09943 22 3.88343 22 4.84943V10.3524C22.0001 10.5823 21.955 10.81 21.8671 11.0224C21.7792 11.2349 21.6503 11.4279 21.4878 11.5905C21.3253 11.7531 21.1323 11.8821 20.9199 11.9701C20.7075 12.0581 20.4799 12.1034 20.25 12.1034H3.75C3.28587 12.1034 2.84075 11.9191 2.51256 11.5909C2.18437 11.2627 2 10.8176 2 10.3534V4.84943C2.00002 4.41024 2.16517 3.98711 2.46268 3.66404C2.76019 3.34096 3.1683 3.14157 3.606 3.10543L3.75 3.09943H20.25Z" fill="#E9E2BE"/>
</svg>
