<svg width="24" height="24" viewBox="0 0 24 24" fill="none" xmlns="http://www.w3.org/2000/svg">
<path fill-rule="evenodd" clip-rule="evenodd" d="M9 7C9 5.93913 9.42143 4.92172 10.1716 4.17157C10.9217 3.42143 11.9391 3 13 3C14.0609 3 15.0783 3.42143 15.8284 4.17157C16.5786 4.92172 17 5.93913 17 7C17 8.06087 16.5786 9.07828 15.8284 9.82843C15.0783 10.5786 14.0609 11 13 11C11.9391 11 10.9217 10.5786 10.1716 9.82843C9.42143 9.07828 9 8.06087 9 7ZM9 11.5C7.67392 11.5 6.40215 13.5268 5.46447 14.4645C4.52678 15.4021 4 16.6739 4 18C4 18.7956 4.31607 19.5587 4.87868 20.1213C5.44129 20.6839 6.20435 21 7 21H19C19.7956 21 20.5587 20.6839 21.1213 20.1213C21.6839 19.5587 22 18.7956 22 18C22 16.6739 21.4732 15.4021 20.5355 14.4645C19.5979 13.5268 18.3261 11.5 17 11.5H9Z" fill="#4E2D18"/>
</svg>
