<svg width="24" height="25" viewBox="0 0 24 25" fill="none" xmlns="http://www.w3.org/2000/svg">
<g clip-path="url(#clip0_240_654)">
<path d="M14.9998 19.1035C15 19.608 14.8094 20.094 14.4664 20.464C14.1233 20.834 13.653 21.0606 13.1498 21.0985L12.9998 21.1035H10.9998C10.4953 21.1036 10.0093 20.913 9.6393 20.57C9.26932 20.2269 9.04269 19.7566 9.00485 19.2535L8.99985 19.1035H14.9998ZM11.9998 2.10345C13.8148 2.10342 15.5589 2.80835 16.8641 4.06953C18.1693 5.33071 18.9336 7.04954 18.9958 8.86345L18.9998 9.10345V12.8675L20.8218 16.5115C20.9014 16.6705 20.9412 16.8464 20.9378 17.0241C20.9345 17.2018 20.8881 17.3761 20.8027 17.532C20.7173 17.6879 20.5953 17.8208 20.4473 17.9193C20.2993 18.0178 20.1297 18.0789 19.9528 18.0975L19.8378 18.1035H4.16185C3.98401 18.1035 3.80882 18.0604 3.65127 17.9779C3.49372 17.8955 3.35853 17.776 3.25727 17.6298C3.156 17.4836 3.0917 17.3151 3.06985 17.1386C3.04801 16.9621 3.06928 16.7829 3.13185 16.6165L3.17785 16.5115L4.99985 12.8675V9.10345C4.99985 7.24694 5.73735 5.46646 7.0501 4.15371C8.36286 2.84095 10.1433 2.10345 11.9998 2.10345Z" fill="#E9E2BE"/>
</g>
<defs>
<clipPath id="clip0_240_654">
<rect width="24" height="24" fill="white" transform="translate(0 0.103455)"/>
</clipPath>
</defs>
</svg>
