<svg width="24" height="25" viewBox="0 0 24 25" fill="none" xmlns="http://www.w3.org/2000/svg">
<path d="M15.0001 19.1035C15.0003 19.608 14.8097 20.094 14.4666 20.464C14.1235 20.834 13.6532 21.0606 13.1501 21.0985L13.0001 21.1035H11.0001C10.4955 21.1036 10.0095 20.913 9.63954 20.57C9.26956 20.2269 9.04294 19.7566 9.00509 19.2535L9.00009 19.1035H15.0001ZM12.0001 2.10345C13.8151 2.10342 15.5591 2.80835 16.8643 4.06953C18.1695 5.33071 18.9339 7.04954 18.9961 8.86345L19.0001 9.10345V12.8675L20.8221 16.5115C20.9016 16.6705 20.9414 16.8464 20.9381 17.0241C20.9347 17.2018 20.8884 17.3761 20.8029 17.532C20.7175 17.6879 20.5956 17.8208 20.4476 17.9193C20.2996 18.0178 20.1299 18.0789 19.9531 18.0975L19.8381 18.1035H4.16209C3.98426 18.1035 3.80906 18.0604 3.65151 17.9779C3.49397 17.8955 3.35877 17.776 3.25751 17.6298C3.15625 17.4836 3.09194 17.3151 3.0701 17.1386C3.04825 16.9621 3.06953 16.7829 3.13209 16.6165L3.17809 16.5115L5.00009 12.8675V9.10345C5.00009 7.24694 5.73759 5.46646 7.05035 4.15371C8.3631 2.84095 10.1436 2.10345 12.0001 2.10345Z" fill="#004925"/>
</svg>
