<svg width="24" height="25" viewBox="0 0 24 25" fill="none" xmlns="http://www.w3.org/2000/svg">
<path d="M11.049 3.03045C11.3484 2.10913 12.6518 2.10913 12.9511 3.03044L14.4697 7.70421C14.6036 8.11623 14.9876 8.39519 15.4208 8.39519H20.3351C21.3038 8.39519 21.7066 9.6348 20.9229 10.2042L16.9471 13.0927C16.5966 13.3474 16.45 13.7988 16.5838 14.2108L18.1024 18.8845C18.4018 19.8059 17.3473 20.572 16.5636 20.0026L12.5879 17.114C12.2374 16.8594 11.7628 16.8594 11.4123 17.114L7.43656 20.0026C6.65284 20.572 5.59836 19.8059 5.89771 18.8845L7.41631 14.2108C7.55019 13.7988 7.40353 13.3474 7.05304 13.0928L3.0773 10.2042C2.29359 9.63481 2.69636 8.39519 3.66509 8.39519H8.57937C9.0126 8.39519 9.39655 8.11623 9.53043 7.70421L11.049 3.03045Z" fill="#E9E2BE"/>
</svg>
