<svg width="25" height="25" viewBox="0 0 25 25" fill="none" xmlns="http://www.w3.org/2000/svg">
<path d="M12.1151 9.25813C11.4143 9.25813 10.7581 9.53 10.2612 10.0269C9.76669 10.5238 9.49247 11.18 9.49247 11.8808C9.49247 12.5816 9.76669 13.2378 10.2612 13.7347C10.7581 14.2292 11.4143 14.5034 12.1151 14.5034C12.8159 14.5034 13.4722 14.2292 13.969 13.7347C14.4636 13.2378 14.7378 12.5816 14.7378 11.8808C14.7378 11.18 14.4636 10.5238 13.969 10.0269C13.7263 9.78232 13.4375 9.58843 13.1192 9.45646C12.801 9.32449 12.4597 9.25707 12.1151 9.25813ZM21.7784 14.7777L20.2456 13.4675C20.3183 13.0222 20.3557 12.5675 20.3557 12.1152C20.3557 11.6628 20.3183 11.2058 20.2456 10.7628L21.7784 9.45266C21.8942 9.35353 21.9771 9.22151 22.016 9.07414C22.0549 8.92677 22.0481 8.77104 21.9964 8.62766L21.9753 8.56672C21.5534 7.38709 20.9214 6.29365 20.1097 5.33938L20.0675 5.29016C19.9689 5.17427 19.8375 5.09096 19.6907 5.05121C19.5438 5.01146 19.3884 5.01714 19.2448 5.0675L17.3417 5.74485C16.6386 5.16829 15.8558 4.7136 15.0073 4.39719L14.6393 2.40735C14.6116 2.25745 14.5389 2.11954 14.4309 2.01195C14.3229 1.90436 14.1847 1.83218 14.0347 1.805L13.9714 1.79329C12.7526 1.57297 11.4682 1.57297 10.2495 1.79329L10.1862 1.805C10.0362 1.83218 9.89802 1.90436 9.79002 2.01195C9.68201 2.11954 9.60929 2.25745 9.58153 2.40735L9.21122 4.40657C8.37082 4.7255 7.58792 5.17908 6.89325 5.74954L4.97606 5.0675C4.83254 5.01674 4.67698 5.01086 4.53003 5.05063C4.38309 5.0904 4.25173 5.17394 4.15341 5.29016L4.11122 5.33938C3.30097 6.29467 2.66904 7.38784 2.24559 8.56672L2.2245 8.62766C2.11903 8.92063 2.20575 9.24875 2.44247 9.45266L3.99403 10.7769C3.92137 11.2175 3.88622 11.6675 3.88622 12.1128C3.88622 12.5628 3.92137 13.0128 3.99403 13.4488L2.44715 14.773C2.33136 14.8721 2.24849 15.0041 2.20955 15.1515C2.17062 15.2989 2.17747 15.4546 2.22919 15.598L2.25028 15.6589C2.6745 16.8378 3.30028 17.9277 4.1159 18.8863L4.15809 18.9355C4.25666 19.0514 4.38802 19.1347 4.53488 19.1744C4.68173 19.2142 4.83719 19.2085 4.98075 19.1581L6.89794 18.4761C7.59637 19.0503 8.3745 19.505 9.21591 19.8191L9.58622 21.8183C9.61398 21.9682 9.6867 22.1061 9.7947 22.2137C9.90271 22.3213 10.0409 22.3934 10.1909 22.4206L10.2542 22.4323C11.4849 22.6538 12.7453 22.6538 13.9761 22.4323L14.0393 22.4206C14.1894 22.3934 14.3275 22.3213 14.4355 22.2137C14.5436 22.1061 14.6163 21.9682 14.644 21.8183L15.012 19.8284C15.8604 19.5097 16.6433 19.0573 17.3464 18.4808L19.2495 19.1581C19.393 19.2089 19.5486 19.2148 19.6955 19.175C19.8425 19.1352 19.9738 19.0517 20.0722 18.9355L20.1143 18.8863C20.93 17.923 21.5558 16.8378 21.98 15.6589L22.0011 15.598C22.1018 15.3073 22.0151 14.9816 21.7784 14.7777ZM12.1151 16.0011C9.83934 16.0011 7.99481 14.1566 7.99481 11.8808C7.99481 9.605 9.83934 7.76047 12.1151 7.76047C14.3909 7.76047 16.2354 9.605 16.2354 11.8808C16.2354 14.1566 14.3909 16.0011 12.1151 16.0011Z" fill="#004925"/>
</svg>
