<svg width="24" height="25" viewBox="0 0 24 25" fill="none" xmlns="http://www.w3.org/2000/svg">
<path d="M12.0116 9.25813C11.3108 9.25813 10.6546 9.53 10.1577 10.0269C9.66317 10.5238 9.38895 11.18 9.38895 11.8808C9.38895 12.5816 9.66317 13.2378 10.1577 13.7347C10.6546 14.2292 11.3108 14.5034 12.0116 14.5034C12.7124 14.5034 13.3686 14.2292 13.8655 13.7347C14.36 13.2378 14.6343 12.5816 14.6343 11.8808C14.6343 11.18 14.36 10.5238 13.8655 10.0269C13.6228 9.78232 13.334 9.58843 13.0157 9.45646C12.6975 9.32449 12.3561 9.25707 12.0116 9.25813ZM21.6749 14.7777L20.1421 13.4675C20.2147 13.0222 20.2522 12.5675 20.2522 12.1152C20.2522 11.6628 20.2147 11.2058 20.1421 10.7628L21.6749 9.45266C21.7907 9.35353 21.8736 9.22151 21.9125 9.07414C21.9514 8.92677 21.9446 8.77104 21.8929 8.62766L21.8718 8.56672C21.4499 7.38709 20.8178 6.29365 20.0061 5.33938L19.964 5.29016C19.8654 5.17427 19.734 5.09096 19.5872 5.05121C19.4403 5.01146 19.2849 5.01714 19.1413 5.0675L17.2382 5.74485C16.535 5.16829 15.7522 4.7136 14.9038 4.39719L14.5358 2.40735C14.5081 2.25745 14.4354 2.11954 14.3273 2.01195C14.2193 1.90436 14.0811 1.83218 13.9311 1.805L13.8679 1.79329C12.6491 1.57297 11.3647 1.57297 10.146 1.79329L10.0827 1.805C9.93269 1.83218 9.79451 1.90436 9.6865 2.01195C9.57849 2.11954 9.50578 2.25745 9.47801 2.40735L9.1077 4.40657C8.2673 4.7255 7.48441 5.17908 6.78973 5.74954L4.87255 5.0675C4.72903 5.01674 4.57346 5.01086 4.42652 5.05063C4.27958 5.0904 4.14821 5.17394 4.04989 5.29016L4.0077 5.33938C3.19745 6.29467 2.56553 7.38784 2.14208 8.56672L2.12098 8.62766C2.01551 8.92063 2.10223 9.24875 2.33895 9.45266L3.89051 10.7769C3.81786 11.2175 3.7827 11.6675 3.7827 12.1128C3.7827 12.5628 3.81786 13.0128 3.89051 13.4488L2.34364 14.773C2.22785 14.8721 2.14497 15.0041 2.10604 15.1515C2.0671 15.2989 2.07395 15.4546 2.12567 15.598L2.14676 15.6589C2.57098 16.8378 3.19676 17.9277 4.01239 18.8863L4.05458 18.9355C4.15314 19.0514 4.28451 19.1347 4.43136 19.1744C4.57822 19.2142 4.73367 19.2085 4.87723 19.1581L6.79442 18.4761C7.49286 19.0503 8.27098 19.505 9.11239 19.8191L9.4827 21.8183C9.51046 21.9682 9.58318 22.1061 9.69119 22.2137C9.7992 22.3213 9.93738 22.3934 10.0874 22.4206L10.1507 22.4323C11.3814 22.6538 12.6418 22.6538 13.8725 22.4323L13.9358 22.4206C14.0858 22.3934 14.224 22.3213 14.332 22.2137C14.44 22.1061 14.5128 21.9682 14.5405 21.8183L14.9085 19.8284C15.7569 19.5097 16.5397 19.0573 17.2429 18.4808L19.146 19.1581C19.2895 19.2089 19.4451 19.2148 19.592 19.175C19.739 19.1352 19.8703 19.0517 19.9686 18.9355L20.0108 18.8863C20.8265 17.923 21.4522 16.8378 21.8765 15.6589L21.8975 15.598C21.9983 15.3073 21.9116 14.9816 21.6749 14.7777ZM12.0116 16.0011C9.73583 16.0011 7.8913 14.1566 7.8913 11.8808C7.8913 9.605 9.73583 7.76047 12.0116 7.76047C14.2874 7.76047 16.1319 9.605 16.1319 11.8808C16.1319 14.1566 14.2874 16.0011 12.0116 16.0011Z" fill="#E9E2BE"/>
</svg>
