<svg width="24" height="24" viewBox="0 0 24 24" fill="none" xmlns="http://www.w3.org/2000/svg">
<path d="M10.9999 14V16.935C10.9999 17.72 11.3089 18.473 11.8589 19.033L14.1149 21.33C12.9349 21.778 11.5609 22.001 9.99991 22.001C6.57991 22.001 4.05591 20.929 2.51391 18.765C2.18203 18.299 2.00376 17.7411 2.00391 17.169V16.249C2.00391 15.6525 2.24085 15.0805 2.66262 14.6587C3.08439 14.237 3.65643 14 4.25291 14H10.9999ZM14.9999 7.005C14.9999 5.67892 14.4731 4.40715 13.5354 3.46947C12.5978 2.53179 11.326 2.005 9.99991 2.005C8.67382 2.005 7.40205 2.53179 6.46437 3.46947C5.52669 4.40715 4.99991 5.67892 4.99991 7.005C4.99991 8.33109 5.52669 9.60286 6.46437 10.5405C7.40205 11.4782 8.67382 12.005 9.99991 12.005C11.326 12.005 12.5978 11.4782 13.5354 10.5405C14.4731 9.60286 14.9999 8.33109 14.9999 7.005ZM16.5719 22.405L12.5719 18.332C12.2054 17.9594 12 17.4577 11.9999 16.935V14C12.0007 13.4697 12.212 12.9615 12.5875 12.587C12.9629 12.2125 13.4716 12.0025 14.0019 12.003L16.9189 12C17.4464 11.9999 17.9528 12.2071 18.3289 12.577L22.4039 16.591C22.5917 16.7753 22.7411 16.9949 22.8434 17.2373C22.9458 17.4797 22.9991 17.7399 23.0002 18.003C23.0013 18.2661 22.9502 18.5268 22.8499 18.77C22.7496 19.0132 22.6021 19.2342 22.4159 19.42L19.4239 22.416C19.2364 22.6035 19.0137 22.7521 18.7685 22.853C18.5233 22.954 18.2606 23.0054 17.9954 23.0043C17.7302 23.0032 17.4679 22.9496 17.2236 22.8465C16.9793 22.7435 16.7578 22.5931 16.5719 22.404M14.9959 16C15.1298 16.0042 15.2632 15.9814 15.3882 15.933C15.5131 15.8846 15.627 15.8116 15.7232 15.7183C15.8194 15.6251 15.8959 15.5134 15.948 15.39C16.0002 15.2666 16.0271 15.134 16.027 15C16.027 14.866 16 14.7334 15.9477 14.6101C15.8953 14.4867 15.8188 14.3751 15.7225 14.2819C15.6262 14.1888 15.5122 14.1159 15.3872 14.0676C15.2622 14.0194 15.1288 13.9967 14.9949 14.001C14.7297 14.0011 14.4754 14.1066 14.2879 14.2943C14.1005 14.4819 13.9953 14.7363 13.9954 15.0015C13.9955 15.2667 14.101 15.521 14.2887 15.7085C14.4763 15.8959 14.7307 16.0001 14.9959 16Z" fill="#0B733F"/>
</svg>
