<svg width="24" height="25" viewBox="0 0 24 25" fill="none" xmlns="http://www.w3.org/2000/svg">
<path d="M22.5 13.6034C22.5015 12.8524 22.315 12.1129 21.9576 11.4524C21.6001 10.792 21.0831 10.2314 20.4535 9.82197C19.8239 9.41251 19.1019 9.16712 18.3532 9.10818C17.6045 9.04924 16.8529 9.17862 16.167 9.48452C15.4812 9.79043 14.8827 10.2631 14.4263 10.8596C13.9699 11.456 13.67 12.1571 13.554 12.8991C13.438 13.6411 13.5095 14.4004 13.7621 15.1076C14.0147 15.8149 14.4402 16.4477 15 16.9484V22.6034L18 21.1836L21 22.6034V16.9484C21.4715 16.5279 21.8489 16.0126 22.1074 15.4361C22.3659 14.8597 22.4997 14.2351 22.5 13.6034ZM19.5 20.2334L18 19.5231L16.5 20.2334V17.8409C17.4694 18.191 18.5306 18.191 19.5 17.8409V20.2334ZM18 16.6034C17.4067 16.6034 16.8266 16.4274 16.3333 16.0978C15.8399 15.7682 15.4554 15.2996 15.2284 14.7514C15.0013 14.2033 14.9419 13.6001 15.0576 13.0181C15.1734 12.4362 15.4591 11.9016 15.8787 11.4821C16.2982 11.0625 16.8328 10.7768 17.4147 10.661C17.9967 10.5453 18.5999 10.6047 19.1481 10.8318C19.6962 11.0588 20.1648 11.4433 20.4944 11.9367C20.8241 12.43 21 13.01 21 13.6034C20.999 14.3987 20.6826 15.1612 20.1202 15.7236C19.5578 16.286 18.7953 16.6024 18 16.6034ZM6.75 10.6034H12V12.1034H6.75V10.6034ZM6.75 6.10339H14.25V7.60339H6.75V6.10339Z" fill="#E9E2BE"/>
<path d="M4.5 22.6034C4.1023 22.603 3.721 22.4448 3.43978 22.1636C3.15856 21.8824 3.0004 21.5011 3 21.1034V3.10339C3.0004 2.70569 3.15856 2.32439 3.43978 2.04317C3.721 1.76195 4.1023 1.60379 4.5 1.60339H16.5C16.8977 1.60379 17.279 1.76195 17.5602 2.04317C17.8414 2.32439 17.9996 2.70569 18 3.10339V6.10339H16.5V3.10339H4.5V21.1034H12V22.6034H4.5Z" fill="#E9E2BE"/>
</svg>
